<svg xmlns="http://www.w3.org/2000/svg" width="24" height="24" viewBox="0 0 24 24" fill="none">
  <path d="M13 7 L14 7 C15.1 7 16 7.9 16 9 L16 19 C16 20.1 15.1 21 14 21 L2 21 C0.9 21 0 20.1 0 19 L0 9 C0 7.9 0.9 7 2 7 L3 7 L3 5 C3 2.24 5.24 0 8 0 C10.76 0 13 2.24 13 5 L13 7 Z M8 2 C6.34 2 5 3.34 5 5 L5 7 L11 7 L11 5 C11 3.34 9.66 2 8 2 Z M2 19 L2 9 L14 9 L14 19 L2 19 Z M10 14 C10 15.1 9.1 16 8 16 C6.9 16 6 15.1 6 14 C6 12.9 6.9 12 8 12 C9.1 12 10 12.9 10 14 Z" fill="#000000" fill-opacity="0.54" fill-rule="evenodd" transform="matrix(1 0 0 1 4 1.5)"/>
</svg>
