<svg preserveAspectRatio="none" overflow="visible" style="display: block;" width="16.6667" height="15.2917" viewBox="0 0 16.6667 15.2917" fill="none" xmlns="http://www.w3.org/2000/svg">
<path id="icon/action/favorite_border_24px" fill-rule="evenodd" clip-rule="evenodd" d="M8.33333 1.74167C9.24167 0.675 10.6333 0 12.0833 0C14.65 0 16.6667 2.01667 16.6667 4.58333C16.6667 7.73075 13.838 10.2958 9.55223 14.1821L9.54167 14.1917L8.33333 15.2917L7.125 14.2L7.0921 14.1701C2.81886 10.2869 0 7.72528 0 4.58333C0 2.01667 2.01667 0 4.58333 0C6.03333 0 7.425 0.675 8.33333 1.74167ZM8.33333 13.0417L8.41667 12.9583C12.3833 9.36667 15 6.99167 15 4.58333C15 2.91667 13.75 1.66667 12.0833 1.66667C10.8 1.66667 9.55 2.49167 9.11667 3.63333H7.55833C7.11667 2.49167 5.86667 1.66667 4.58333 1.66667C2.91667 1.66667 1.66667 2.91667 1.66667 4.58333C1.66667 6.99167 4.28333 9.36667 8.25 12.9583L8.33333 13.0417Z" fill="#939BAE"/>
</svg>
