<svg preserveAspectRatio="none" overflow="visible" style="display: block;" width="87.4202" height="26" viewBox="0 0 87.4202 26" fill="none" xmlns="http://www.w3.org/2000/svg">
<g id="Group 1">
<path id="image 2 (Traced)" fill-rule="evenodd" clip-rule="evenodd" d="M16.5356 3.77861C14.4113 5.85678 12.4874 7.70213 12.2604 7.87923L11.8476 8.20107L10.754 7.05576C10.1523 6.42565 9.42827 5.64448 9.14472 5.31948L8.62921 4.72867L5.48296 4.77145L2.3367 4.81422L3.76718 6.39266C4.55398 7.2608 5.44952 8.25379 5.75727 8.59915C6.06502 8.94467 6.77588 9.70768 7.33676 10.2947C8.14856 11.1444 8.32735 11.4189 8.2124 11.6397C8.13312 11.7923 6.27167 13.6574 4.07572 15.7843L0.0834415 19.6515L0.015937 22.7842C-0.0209991 24.5072 0.0084546 25.9536 0.0816899 25.9982C0.154925 26.0429 1.08629 25.2379 2.15138 24.2094C3.21648 23.1807 5.77574 20.7045 7.83858 18.7067C9.90159 16.7087 13.6449 13.0971 16.1572 10.6806L20.7251 6.28738V3.14361C20.7251 1.09733 20.668 0 20.5616 0C20.4717 0 18.6599 1.70045 16.5356 3.77861ZM14.6812 14.2684C13.8526 15.0827 13.1548 15.8102 13.1305 15.885C13.0811 16.0367 14.2511 17.4385 15.5826 18.8228L16.4555 19.7304H19.466C22.8248 19.7304 22.8867 19.7061 21.9002 18.7748C21.5833 18.4757 20.9659 17.8047 20.528 17.2839C20.0904 16.763 19.327 15.9106 18.8318 15.3897C18.3367 14.8688 17.6222 14.0698 17.2439 13.614C16.8656 13.1581 16.4732 12.7858 16.3719 12.7866C16.2707 12.7872 15.5098 13.4539 14.6812 14.2684Z" fill="white"/>
<g id="wealth">
<path d="M36.8727 6.98452L35.4262 12.3689L33.8591 6.98452H31.0464L29.4793 12.3689L28.0327 6.98452H24.8182L28.0327 17.03H30.8455L32.4527 11.6657L34.06 17.03H36.8727L40.0873 6.98452H36.8727Z" fill="white"/>
<path d="M43.5831 13.2127H50.7154C50.7957 12.831 50.8359 12.4292 50.8359 12.0072C50.8359 8.97352 48.6661 6.70325 45.7328 6.70325C42.5585 6.70325 40.3886 9.0137 40.3886 12.0072C40.3886 15.0008 42.5183 17.3112 45.9538 17.3112C47.8625 17.3112 49.3492 16.6081 50.3336 15.2419L47.9227 13.8556C47.5209 14.2976 46.8177 14.6191 45.994 14.6191C44.889 14.6191 43.9648 14.2574 43.5831 13.2127ZM43.5228 10.9625C43.8041 9.93788 44.5675 9.37534 45.7127 9.37534C46.6168 9.37534 47.5209 9.79725 47.8424 10.9625H43.5228Z" fill="white"/>
<path d="M59.7401 6.98452V7.92879C59.0771 7.16534 58.0926 6.70325 56.7466 6.70325C54.1146 6.70325 51.9448 9.0137 51.9448 12.0072C51.9448 15.0008 54.1146 17.3112 56.7466 17.3112C58.0926 17.3112 59.0771 16.8492 59.7401 16.0857V17.03H62.7537V6.98452H59.7401ZM57.3493 14.4583C55.963 14.4583 54.9585 13.5141 54.9585 12.0072C54.9585 10.5004 55.963 9.55615 57.3493 9.55615C58.7356 9.55615 59.7401 10.5004 59.7401 12.0072C59.7401 13.5141 58.7356 14.4583 57.3493 14.4583Z" fill="white"/>
<path d="M64.9647 17.03H67.9783V2.36361H64.9647V17.03Z" fill="white"/>
<path d="M76.0702 9.87761V6.98452H74.0009V4.17179L70.9872 5.07588V6.98452H69.38V9.87761H70.9872V13.4337C70.9872 16.2464 72.1324 17.4318 76.0702 17.03V14.2976C74.7442 14.378 74.0009 14.2976 74.0009 13.4337V9.87761H76.0702Z" fill="white"/>
<path d="M83.6632 6.70325C82.3372 6.70325 81.3327 7.18543 80.7902 7.92879V2.96634H77.7766V17.03H80.7902V11.5452C80.7902 10.1187 81.5536 9.47579 82.6586 9.47579C83.623 9.47579 84.4066 10.0584 84.4066 11.3041V17.03H87.4202V10.8621C87.4202 8.14979 85.6924 6.70325 83.6632 6.70325Z" fill="white"/>
</g>
</g>
</svg>
